<svg width="11" height="11" viewBox="0 0 11 11" fill="none" xmlns="http://www.w3.org/2000/svg">
<path d="M5.25 0C2.35498 0 0 2.35498 0 5.25C0 8.14502 2.35498 10.5 5.25 10.5C8.14502 10.5 10.5 8.14502 10.5 5.25C10.5 2.35498 8.14502 0 5.25 0ZM5.25 0.875C7.67163 0.875 9.625 2.82837 9.625 5.25C9.625 7.67163 7.67163 9.625 5.25 9.625C2.82837 9.625 0.875 7.67163 0.875 5.25C0.875 2.82837 2.82837 0.875 5.25 0.875ZM7.66992 2.21484L6.83594 3.03516L7.46484 3.66406L8.28516 2.83008L7.66992 2.21484ZM5.25 3.0625C4.04688 3.0625 3.0625 4.04688 3.0625 5.25C3.0625 6.45312 4.04688 7.4375 5.25 7.4375C6.45312 7.4375 7.4375 6.45312 7.4375 5.25C7.4375 4.04688 6.45312 3.0625 5.25 3.0625ZM5.25 3.9375C5.97974 3.9375 6.5625 4.52026 6.5625 5.25C6.5625 5.97974 5.97974 6.5625 5.25 6.5625C4.52026 6.5625 3.9375 5.97974 3.9375 5.25C3.9375 4.52026 4.52026 3.9375 5.25 3.9375ZM5.25 4.8125C5.00903 4.8125 4.8125 5.00903 4.8125 5.25C4.8125 5.49097 5.00903 5.6875 5.25 5.6875C5.49097 5.6875 5.6875 5.49097 5.6875 5.25C5.6875 5.00903 5.49097 4.8125 5.25 4.8125ZM3.03516 6.83594L2.21484 7.66992L2.83008 8.28516L3.66406 7.46484L3.03516 6.83594Z" fill="#6A6A6A"/>
</svg>
