<svg width="30" height="30" viewBox="0 0 30 30" fill="none" xmlns="http://www.w3.org/2000/svg">
<g clip-path="url(#clip0_6_401)">
<path d="M7.26562 7.96875H2.10938C1.79868 7.96911 1.50082 8.09269 1.28113 8.31238C1.06144 8.53207 0.937857 8.82993 0.9375 9.14062V27.8906C0.937857 28.2013 1.06144 28.4992 1.28113 28.7189C1.50082 28.9386 1.79868 29.0621 2.10938 29.0625H7.26562C7.57632 29.0621 7.87418 28.9386 8.09387 28.7189C8.31356 28.4992 8.43714 28.2013 8.4375 27.8906V9.14062C8.43714 8.82993 8.31356 8.53207 8.09387 8.31238C7.87418 8.09269 7.57632 7.96911 7.26562 7.96875ZM6.5625 27.1875H2.8125V9.84375H6.5625V27.1875Z" />
<path d="M17.5781 14.0625H12.4219C12.1112 14.0629 11.8133 14.1864 11.5936 14.4061C11.3739 14.6258 11.2504 14.9237 11.25 15.2344V27.8906C11.2504 28.2013 11.3739 28.4992 11.5936 28.7189C11.8133 28.9386 12.1112 29.0621 12.4219 29.0625H17.5781C17.8888 29.0621 18.1867 28.9386 18.4064 28.7189C18.6261 28.4992 18.7496 28.2013 18.75 27.8906V15.2344C18.7496 14.9237 18.6261 14.6258 18.4064 14.4061C18.1867 14.1864 17.8888 14.0629 17.5781 14.0625ZM16.875 27.1875H13.125V15.9375H16.875V27.1875Z" />
<path d="M27.8906 0.9375H22.7344C22.4237 0.937857 22.1258 1.06144 21.9061 1.28113C21.6864 1.50082 21.5629 1.79868 21.5625 2.10938V27.8906C21.5629 28.2013 21.6864 28.4992 21.9061 28.7189C22.1258 28.9386 22.4237 29.0621 22.7344 29.0625H27.8906C28.2013 29.0621 28.4992 28.9386 28.7189 28.7189C28.9386 28.4992 29.0621 28.2013 29.0625 27.8906V2.10938C29.0621 1.79868 28.9386 1.50082 28.7189 1.28113C28.4992 1.06144 28.2013 0.937857 27.8906 0.9375ZM27.1875 27.1875H23.4375V2.8125H27.1875V27.1875Z" />
</g>
<defs>
<clipPath id="clip0_6_401">
<rect width="30" height="30" fill="white"/>
</clipPath>
</defs>
</svg>
