<svg width="22" height="22" viewBox="0 0 22 22" fill="none" xmlns="http://www.w3.org/2000/svg">
<path d="M11 1.83337C5.94551 1.83337 1.83334 5.94554 1.83334 11C1.83334 16.0545 5.94551 20.1667 11 20.1667C16.0545 20.1667 20.1667 16.0545 20.1667 11C20.1667 5.94554 16.0545 1.83337 11 1.83337ZM11 18.3334C6.95659 18.3334 3.66668 15.0435 3.66668 11C3.66668 6.95662 6.95659 3.66671 11 3.66671C15.0434 3.66671 18.3333 6.95662 18.3333 11C18.3333 15.0435 15.0434 18.3334 11 18.3334Z" />
<path d="M11.9167 6.41663H10.0833V11.3795L13.1019 14.398L14.3981 13.1019L11.9167 10.6205V6.41663Z" />
</svg>
