<svg width="35" height="30" viewBox="0 0 35 30" fill="none" xmlns="http://www.w3.org/2000/svg">
<path d="M10.5 14.9998C13.8852 14.9998 16.625 12.0642 16.625 8.43726C16.625 4.8103 13.8852 1.87476 10.5 1.87476C7.11484 1.87476 4.375 4.8103 4.375 8.43726C4.375 12.0642 7.11484 14.9998 10.5 14.9998ZM14.7 16.8748H14.2461C13.1086 17.4607 11.8453 17.8123 10.5 17.8123C9.15469 17.8123 7.89687 17.4607 6.75391 16.8748H6.3C2.82187 16.8748 0 19.8982 0 23.6248V25.3123C0 26.865 1.17578 28.1248 2.625 28.1248H18.375C19.8242 28.1248 21 26.865 21 25.3123V23.6248C21 19.8982 18.1781 16.8748 14.7 16.8748ZM26.25 14.9998C29.1484 14.9998 31.5 12.4802 31.5 9.37476C31.5 6.26929 29.1484 3.74976 26.25 3.74976C23.3516 3.74976 21 6.26929 21 9.37476C21 12.4802 23.3516 14.9998 26.25 14.9998ZM28.875 16.8748H28.6672C27.907 17.156 27.1031 17.3435 26.25 17.3435C25.3969 17.3435 24.593 17.156 23.8328 16.8748H23.625C22.5094 16.8748 21.4812 17.2205 20.5789 17.7771C21.9133 19.3181 22.75 21.363 22.75 23.6248V25.8748C22.75 26.0037 22.7227 26.1267 22.7172 26.2498H32.375C33.8242 26.2498 35 24.99 35 23.4373C35 19.8103 32.2602 16.8748 28.875 16.8748Z" />
</svg>
