<svg width="17" height="17" viewBox="0 0 17 17" fill="none" xmlns="http://www.w3.org/2000/svg">
<g clip-path="url(#clip0_6_317)">
<path d="M4.25001 9.20837H1.41668C0.991677 9.20837 0.708344 9.49171 0.708344 9.91671V15.5834C0.708344 16.0084 0.991677 16.2917 1.41668 16.2917H4.25001C4.67501 16.2917 4.95834 16.0084 4.95834 15.5834V9.91671C4.95834 9.49171 4.67501 9.20837 4.25001 9.20837ZM15.5833 6.37504H12.75C12.325 6.37504 12.0417 6.65837 12.0417 7.08337V15.5834C12.0417 16.0084 12.325 16.2917 12.75 16.2917H15.5833C16.0083 16.2917 16.2917 16.0084 16.2917 15.5834V7.08337C16.2917 6.65837 16.0083 6.37504 15.5833 6.37504ZM9.91668 0.708374H7.08334C6.65834 0.708374 6.37501 0.991707 6.37501 1.41671V15.5834C6.37501 16.0084 6.65834 16.2917 7.08334 16.2917H9.91668C10.3417 16.2917 10.625 16.0084 10.625 15.5834V1.41671C10.625 0.991707 10.3417 0.708374 9.91668 0.708374Z" />
</g>
<defs>
<clipPath id="clip0_6_317">
<rect width="17" height="17" fill="white"/>
</clipPath>
</defs>
</svg>
