<svg width="179" height="195" viewBox="0 0 179 195" fill="none" xmlns="http://www.w3.org/2000/svg">
<path d="M183.996 155.718L184.973 155.504L183.996 155.718ZM152.092 79.6851L151.299 80.2949L152.092 79.6851ZM0.991183 3.09751C-0.684885 5.51967 -0.0800539 8.84194 2.34211 10.518C4.76427 12.1941 8.08655 11.5892 9.76262 9.16708C11.4387 6.74492 10.8339 3.42264 8.41169 1.74658C5.98952 0.0705096 2.66725 0.675341 0.991183 3.09751ZM5.3769 6.13229C5.17005 7.11067 5.17004 7.11066 5.17003 7.11066C5.17003 7.11066 5.17002 7.11066 5.17002 7.11066C5.17002 7.11066 5.17003 7.11066 5.17005 7.11067C5.1701 7.11068 5.17018 7.11069 5.1703 7.11072C5.17054 7.11077 5.17094 7.11085 5.1715 7.11097C5.17262 7.11121 5.17437 7.11158 5.17675 7.11209C5.18151 7.1131 5.1888 7.11465 5.19858 7.11673C5.21814 7.12091 5.24771 7.12724 5.28712 7.13572C5.36594 7.15269 5.48411 7.1783 5.64036 7.21257C5.95284 7.28112 6.41758 7.38434 7.02423 7.52256L7.46851 5.57253C6.85645 5.43308 6.38646 5.32868 6.06888 5.25902C5.9101 5.22419 5.78941 5.19804 5.70813 5.18054C5.66748 5.17178 5.63669 5.16519 5.61591 5.16076C5.60551 5.15854 5.59762 5.15687 5.59226 5.15573C5.58958 5.15516 5.58752 5.15472 5.5861 5.15442C5.5854 5.15427 5.58484 5.15415 5.58445 5.15407C5.58426 5.15403 5.5841 5.15399 5.58398 5.15397C5.58392 5.15396 5.58387 5.15395 5.58384 5.15394C5.58382 5.15394 5.5838 5.15393 5.58379 5.15393C5.58377 5.15392 5.58375 5.15392 5.3769 6.13229ZM10.885 8.43206C12.0251 8.70835 13.3203 9.02842 14.7563 9.39268L15.248 7.45408C13.8049 7.088 12.5028 6.76623 11.3561 6.48833L10.885 8.43206ZM18.6192 10.3924C19.8289 10.7115 21.107 11.0542 22.4481 11.4207L22.9754 9.49149C21.6284 9.12335 20.3446 8.77909 19.1294 8.45853L18.6192 10.3924ZM26.2534 12.4782C27.4781 12.8242 28.7442 13.1872 30.0483 13.5674L30.6081 11.6474C29.2985 11.2656 28.027 10.901 26.7971 10.5536L26.2534 12.4782ZM33.8426 14.6907C35.0812 15.063 36.3483 15.4494 37.6414 15.8498L38.233 13.9393C36.9345 13.5372 35.6621 13.1492 34.4183 12.7754L33.8426 14.6907ZM41.4462 17.0457C42.6781 17.4387 43.93 17.8436 45.1999 18.2605L45.8238 16.3602C44.5484 15.9415 43.2911 15.5349 42.054 15.1403L41.4462 17.0457ZM48.9556 19.5113C50.1968 19.9307 51.4528 20.361 52.7218 20.8023L53.3787 18.9132C52.104 18.47 50.8424 18.0377 49.5958 17.6165L48.9556 19.5113ZM56.4511 22.1178C57.6818 22.5582 58.923 23.0086 60.1731 23.4691L60.8643 21.5923C59.6083 21.1297 58.3613 20.6772 57.125 20.2348L56.4511 22.1178ZM63.9022 24.8626C65.1236 25.3257 66.3521 25.7982 67.5865 26.2802L68.3138 24.4171C67.0732 23.9328 65.8386 23.4579 64.6113 22.9925L63.9022 24.8626ZM71.2741 27.7413C72.4939 28.2319 73.7181 28.7315 74.9456 29.2402L75.7113 27.3926C74.4772 26.8811 73.2465 26.3789 72.0203 25.8858L71.2741 27.7413ZM78.5923 30.7747C79.8046 31.2927 81.0189 31.8195 82.2341 32.3552L83.0408 30.5251C81.8185 29.9863 80.5973 29.4565 79.3781 28.9356L78.5923 30.7747ZM85.8429 33.9714C87.0425 34.5173 88.2419 35.0717 89.44 35.6349L90.2908 33.8249C89.0851 33.2581 87.8782 32.7002 86.6713 32.151L85.8429 33.9714ZM93.0124 37.3423C94.1981 37.9186 95.3815 38.5034 96.5615 39.0969L97.4601 37.3102C96.2719 36.7125 95.0803 36.1236 93.8866 35.5435L93.0124 37.3423ZM100.086 40.9008C101.256 41.5105 102.422 42.1288 103.582 42.7558L104.533 40.9962C103.364 40.3644 102.189 39.7413 101.01 39.1271L100.086 40.9008ZM107.048 44.6638C108.2 45.3101 109.345 45.965 110.482 46.6286L111.49 44.9012C110.343 44.2317 109.188 43.5712 108.026 42.9196L107.048 44.6638ZM113.881 48.6523C115.009 49.3378 116.128 50.0321 117.238 50.7353L118.309 49.0461C117.188 48.336 116.058 47.635 114.92 46.9431L113.881 48.6523ZM120.559 52.8876C121.659 53.6164 122.747 54.3543 123.823 55.1012L124.963 53.4583C123.875 52.7029 122.775 51.957 121.664 51.2205L120.559 52.8876ZM127.047 57.3942C128.115 58.1728 129.169 58.9609 130.207 59.7583L131.425 58.1719C130.373 57.3641 129.306 56.5662 128.225 55.7781L127.047 57.3942ZM133.301 62.1992C134.33 63.0334 135.342 63.8775 136.335 64.7314L137.639 63.2148C136.631 62.348 135.604 61.4916 134.561 60.6457L133.301 62.1992ZM139.278 67.3403C140.254 68.2334 141.21 69.1369 142.143 70.0506L143.542 68.6211C142.592 67.6912 141.62 66.7724 140.628 65.8648L139.278 67.3403ZM144.909 72.8549C145.815 73.8084 146.697 74.7726 147.554 75.7475L149.056 74.4274C148.182 73.4322 147.282 72.4488 146.358 71.4771L144.909 72.8549ZM150.092 78.7624C150.502 79.2705 150.904 79.7813 151.299 80.2949L152.884 79.0753C152.48 78.5496 152.068 78.0271 151.65 77.5076L150.092 78.7624ZM151.299 80.2949C151.727 80.8504 152.147 81.4025 152.561 81.9513L154.158 80.7475C153.74 80.1932 153.316 79.6359 152.884 79.0753L151.299 80.2949ZM155.018 85.2829C155.841 86.4257 156.636 87.5558 157.404 88.6753L159.053 87.5445C158.277 86.4116 157.473 85.2685 156.64 84.1133L155.018 85.2829ZM159.698 92.1151C160.461 93.293 161.195 94.4609 161.901 95.6214L163.61 94.5813C162.893 93.4045 162.149 92.2207 161.376 91.0273L159.698 92.1151ZM163.999 99.1846C164.688 100.397 165.349 101.604 165.983 102.808L167.753 101.875C167.108 100.652 166.437 99.4271 165.738 98.1964L163.999 99.1846ZM167.852 106.497C168.459 107.744 169.04 108.992 169.598 110.243L171.424 109.427C170.857 108.157 170.267 106.889 169.651 105.623L167.852 106.497ZM171.222 114.043C171.743 115.319 172.244 116.602 172.727 117.895L174.601 117.195C174.111 115.884 173.603 114.582 173.073 113.287L171.222 114.043ZM174.12 121.79C174.564 123.088 174.993 124.398 175.409 125.725L177.317 125.125C176.896 123.783 176.462 122.457 176.012 121.143L174.12 121.79ZM176.608 129.694C176.989 131.006 177.361 132.335 177.726 133.685L179.657 133.162C179.289 131.801 178.913 130.46 178.529 129.136L176.608 129.694ZM178.78 137.7C179.116 139.022 179.449 140.366 179.78 141.734L181.724 141.263C181.391 139.889 181.057 138.537 180.718 137.206L178.78 137.7ZM180.737 145.775C181.046 147.104 181.355 148.457 181.666 149.834L183.617 149.394C183.305 148.013 182.996 146.657 182.686 145.322L180.737 145.775ZM182.57 153.892C182.719 154.566 182.869 155.246 183.019 155.932L184.973 155.504C184.822 154.817 184.672 154.136 184.523 153.461L182.57 153.892ZM183.019 155.932C183.158 156.565 183.293 157.197 183.426 157.828L185.383 157.417C185.249 156.781 185.113 156.143 184.973 155.504L183.019 155.932ZM184.191 161.631C184.439 162.916 184.675 164.189 184.898 165.447L186.867 165.097C186.642 163.831 186.405 162.547 186.155 161.252L184.191 161.631ZM185.549 169.274C185.762 170.58 185.962 171.86 186.149 173.108L188.127 172.812C187.938 171.556 187.738 170.267 187.523 168.952L185.549 169.274ZM186.699 176.951C186.882 178.289 187.05 179.575 187.202 180.802L189.187 180.554C189.033 179.321 188.865 178.026 188.681 176.68L186.699 176.951ZM187.659 184.659C187.818 186.077 187.954 187.37 188.067 188.517L190.058 188.32C189.943 187.165 189.807 185.863 189.647 184.436L187.659 184.659ZM188.423 192.38C188.475 193.002 188.512 193.483 188.537 193.808C188.549 193.971 188.558 194.095 188.564 194.177C188.567 194.219 188.569 194.25 188.57 194.27C188.571 194.281 188.572 194.288 188.572 194.293C188.572 194.296 188.572 194.298 188.572 194.299C188.572 194.3 188.572 194.3 188.572 194.3C188.572 194.3 188.572 194.3 188.572 194.301C188.572 194.301 188.572 194.301 188.572 194.301C188.572 194.301 188.572 194.301 189.57 194.233C190.568 194.166 190.568 194.166 190.568 194.166C190.568 194.166 190.568 194.166 190.568 194.166C190.568 194.166 190.568 194.166 190.568 194.166C190.568 194.166 190.568 194.166 190.568 194.166C190.568 194.165 190.568 194.165 190.568 194.164C190.568 194.162 190.568 194.16 190.567 194.157C190.567 194.152 190.566 194.143 190.566 194.133C190.564 194.111 190.562 194.078 190.559 194.036C190.553 193.95 190.544 193.824 190.531 193.659C190.506 193.328 190.468 192.841 190.416 192.213L188.423 192.38Z" fill="#1FDF64"/>
</svg>
