<svg width="180" height="72" viewBox="0 0 180 72" fill="none" xmlns="http://www.w3.org/2000/svg">
<path d="M88.5 62L88.8128 62.9498L88.5 62ZM169.167 6C169.167 8.94552 171.554 11.3333 174.5 11.3333C177.446 11.3333 179.833 8.94552 179.833 6C179.833 3.05448 177.446 0.666667 174.5 0.666667C171.554 0.666667 169.167 3.05448 169.167 6ZM-6 69.5C-6.06858 70.4976 -6.06857 70.4977 -6.06855 70.4977C-6.06854 70.4977 -6.06852 70.4977 -6.0685 70.4977C-6.06847 70.4977 -6.06842 70.4977 -6.06836 70.4977C-6.06824 70.4977 -6.06809 70.4977 -6.06789 70.4977C-6.06749 70.4977 -6.06692 70.4978 -6.06619 70.4978C-6.06473 70.4979 -6.06261 70.4981 -6.05982 70.4982C-6.05425 70.4986 -6.04603 70.4992 -6.0352 70.4999C-6.01354 70.5014 -5.9814 70.5035 -5.939 70.5063C-5.8542 70.5118 -5.72832 70.5199 -5.56297 70.5302C-5.23228 70.5508 -4.74372 70.58 -4.11017 70.6149L-4.00021 68.6179C-4.62886 68.5833 -5.1127 68.5544 -5.43887 68.5341C-5.60195 68.5239 -5.72561 68.516 -5.80824 68.5106C-5.84955 68.5079 -5.88061 68.5058 -5.90121 68.5044C-5.9115 68.5037 -5.91919 68.5032 -5.92423 68.5028C-5.92675 68.5027 -5.92861 68.5025 -5.92981 68.5025C-5.93041 68.5024 -5.93085 68.5024 -5.93111 68.5024C-5.93125 68.5024 -5.93134 68.5024 -5.93139 68.5024C-5.93142 68.5024 -5.93143 68.5024 -5.93143 68.5024C-5.93144 68.5024 -5.93143 68.5024 -5.93143 68.5024C-5.93143 68.5024 -5.93142 68.5024 -6 69.5ZM-0.110905 70.8088C1.0681 70.8591 2.40255 70.9105 3.87455 70.9587L3.94003 68.9598C2.47496 68.9118 1.1471 68.8607 -0.0256462 68.8106L-0.110905 70.8088ZM7.83155 71.0703C9.09682 71.1003 10.431 71.1265 11.8264 71.1472L11.8561 69.1474C10.4668 69.1268 9.13853 69.1007 7.87892 69.0709L7.83155 71.0703ZM15.791 71.1886C17.0789 71.1964 18.407 71.199 19.7704 71.1951L19.7648 69.1952C18.4075 69.199 17.0854 69.1965 15.8031 69.1887L15.791 71.1886ZM23.7544 71.1658C25.0578 71.1502 26.3869 71.1284 27.7382 71.0995L27.6954 69.1C26.3506 69.1287 25.0278 69.1504 23.7305 69.166L23.7544 71.1658ZM31.7199 70.9949C33.0295 70.9539 34.3556 70.906 35.6953 70.8503L35.6122 68.852C34.2797 68.9074 32.9604 68.9551 31.6575 68.9958L31.7199 70.9949ZM39.6702 70.6635C40.9859 70.5944 42.3115 70.5175 43.6442 70.432L43.5162 68.4361C42.1915 68.5211 40.8736 68.5976 39.5653 68.6663L39.6702 70.6635ZM47.6163 70.1527C48.936 70.0516 50.2599 69.9416 51.5856 69.8222L51.4062 67.8303C50.0897 67.9488 48.7746 68.0581 47.4635 68.1585L47.6163 70.1527ZM55.551 69.4365C56.8728 69.2981 58.1938 69.1498 59.5115 68.9908L59.2719 67.0052C57.9651 67.1629 56.6546 67.31 55.3428 67.4474L55.551 69.4365ZM63.4656 68.4796C64.7877 68.2968 66.104 68.1025 67.4116 67.8961L67.0999 65.9206C65.8054 66.1249 64.5018 66.3173 63.1917 66.4984L63.4656 68.4796ZM71.3475 67.2326C72.6678 66.9953 73.9764 66.7445 75.2705 66.4795L74.8694 64.5202C73.5918 64.7817 72.299 65.0295 70.9936 65.2642L71.3475 67.2326ZM79.1766 65.6253C80.4909 65.3185 81.7866 64.9956 83.0603 64.6557L82.5446 62.7233C81.2924 63.0575 80.0172 63.3753 78.722 63.6776L79.1766 65.6253ZM86.9137 63.5533C87.5537 63.357 88.1869 63.1559 88.8128 62.9498L88.1872 61.0502C87.5748 61.2518 86.9548 61.4488 86.3274 61.6411L86.9137 63.5533ZM88.8128 62.9498C89.439 62.7436 90.0676 62.5292 90.6983 62.307L90.0336 60.4206C89.4155 60.6385 88.7999 60.8484 88.1872 61.0502L88.8128 62.9498ZM94.4523 60.9031C95.6795 60.4186 96.9129 59.9073 98.1509 59.3718L97.3568 57.5362C96.1374 58.0637 94.9239 58.5666 93.7179 59.0428L94.4523 60.9031ZM101.798 57.731C102.996 57.1721 104.196 56.5928 105.397 55.995L104.506 54.2044C103.319 54.7951 102.134 55.3672 100.952 55.9186L101.798 57.731ZM108.952 54.1754C110.124 53.5591 111.296 52.9273 112.466 52.2816L111.499 50.5305C110.341 51.17 109.181 51.7955 108.021 52.4052L108.952 54.1754ZM115.941 50.3217C117.09 49.6595 118.237 48.9857 119.379 48.3022L118.352 46.586C117.219 47.2641 116.082 47.9322 114.943 48.5886L115.941 50.3217ZM122.784 46.2289C123.914 45.5288 125.038 44.8208 126.155 44.1066L125.078 42.4215C123.969 43.1308 122.852 43.8338 121.731 44.5286L122.784 46.2289ZM129.496 41.9395C130.61 41.2068 131.715 40.4695 132.809 39.7297L131.69 38.0726C130.601 38.808 129.503 39.5407 128.397 40.2688L129.496 41.9395ZM136.096 37.4804C137.196 36.7186 138.283 35.956 139.357 35.1946L138.2 33.5631C137.132 34.3204 136.051 35.0789 134.957 35.8364L136.096 37.4804ZM142.593 32.8746C143.68 32.0863 144.751 31.3015 145.804 30.5225L144.615 28.9148C143.567 29.69 142.501 30.4709 141.419 31.2552L142.593 32.8746ZM148.991 28.1403C150.069 27.3269 151.124 26.5226 152.154 25.7301L150.935 24.1449C149.909 24.9338 148.859 25.7344 147.787 26.544L148.991 28.1403ZM155.293 23.2933C156.37 22.4491 157.415 21.6228 158.423 20.818L157.176 19.2546C156.172 20.0559 155.132 20.8786 154.059 21.719L155.293 23.2933ZM161.531 18.3164C162.608 17.4413 163.634 16.6002 164.603 15.7989L163.328 14.2576C162.364 15.0554 161.343 15.8927 160.27 16.764L161.531 18.3164ZM167.664 13.2437C168.786 12.2989 169.797 11.437 170.688 10.6717L169.384 9.15499C168.498 9.91618 167.492 10.7738 166.376 11.7142L167.664 13.2437ZM173.704 8.04791C174.181 7.62713 174.547 7.30107 174.794 7.07985C174.918 6.96924 175.012 6.88484 175.075 6.82791C175.107 6.79944 175.131 6.77784 175.147 6.76327C175.155 6.75599 175.161 6.75046 175.165 6.7467C175.167 6.74483 175.169 6.74339 175.17 6.74241C175.171 6.74192 175.171 6.74153 175.171 6.74126C175.171 6.74113 175.171 6.74102 175.172 6.74094C175.172 6.7409 175.172 6.74087 175.172 6.74085C175.172 6.74083 175.172 6.74082 175.172 6.74081C175.172 6.7408 175.172 6.74079 174.5 6C173.828 5.25921 173.828 5.2592 173.828 5.2592C173.828 5.2592 173.828 5.25919 173.828 5.2592C173.828 5.2592 173.828 5.25921 173.828 5.25922C173.828 5.25926 173.828 5.25932 173.828 5.25941C173.828 5.25959 173.828 5.25988 173.827 5.26028C173.826 5.26108 173.825 5.26233 173.823 5.26403C173.819 5.26742 173.813 5.27258 173.806 5.2795C173.791 5.29333 173.767 5.31419 173.737 5.3419C173.675 5.39733 173.583 5.48021 173.461 5.58927C173.217 5.8074 172.855 6.13024 172.381 6.5477L173.704 8.04791Z" fill="#1FDF64"/>
</svg>
