<svg width="30" height="30" fill="none" xmlns="http://www.w3.org/2000/svg"><path d="M12.25 1.531c-2.962.271-5.542 1.501-7.538 3.591C3.043 6.87 1.994 9.031 1.617 11.5c-.122.794-.122 2.456 0 3.25a11.857 11.857 0 0 0 2.248 5.396c.46.615 1.624 1.779 2.239 2.239a11.874 11.874 0 0 0 5.376 2.245c.814.124 2.465.126 3.27.003a11.64 11.64 0 0 0 3.475-1.082 10.416 10.416 0 0 0 1.916-1.169l.466-.348 2.459 2.452c2.665 2.658 2.591 2.597 3.107 2.554a.948.948 0 0 0 .866-.863c.044-.52.107-.443-2.553-3.111l-2.452-2.46.348-.465c.512-.684.786-1.133 1.169-1.916a11.64 11.64 0 0 0 1.082-3.475c.121-.794.121-2.456 0-3.25a11.926 11.926 0 0 0-2.248-5.396c-.46-.615-1.624-1.779-2.239-2.239A11.844 11.844 0 0 0 14.8 1.626c-.512-.077-2.1-.136-2.55-.095m1.889 2.022c1.201.131 2.165.417 3.286.975a9.37 9.37 0 0 1 4.296 4.297c.571 1.151.848 2.096.983 3.35.07.651.034 1.85-.075 2.5a9.673 9.673 0 0 1-7.954 7.954c-.65.109-1.849.145-2.5.075-1.254-.135-2.199-.412-3.35-.983a9.36 9.36 0 0 1-4.297-4.296c-.702-1.412-1.028-2.775-1.028-4.3s.326-2.888 1.028-4.3c.725-1.459 1.714-2.609 3.097-3.602.558-.4 1.777-1.011 2.475-1.241a9.94 9.94 0 0 1 4.039-.429m-1.76 3.005c-1.164.133-2.514.765-3.345 1.566-.323.311-.434.523-.434.826 0 .551.44.996.989.999.294.001.501-.096.821-.385.526-.477 1.044-.766 1.693-.945.451-.125 1.593-.125 2.044 0 .649.179 1.167.468 1.693.945.15.135.348.278.44.316.348.146.853.038 1.105-.237.251-.273.334-.731.193-1.067-.163-.392-1.211-1.194-2.017-1.545a6.052 6.052 0 0 0-3.182-.473" fill-rule="evenodd" /></svg>